<svg version="1.1" xmlns="http://www.w3.org/2000/svg" viewBox="-310.7 -2994.5249999999996 3078.9 3386.725"><desc>Created with Snap</desc><defs></defs><g><g transform="matrix(53.332,0,0,53.332,695.4297,-2687.325)"><g><rect x="4" y="4" width="6" height="1" fill="#ffd348" style=""></rect><rect x="4" y="8" width="12" height="1" fill="#ffd348" style=""></rect><rect x="4" y="11" width="12" height="1" fill="#ffd348" style=""></rect><rect x="4" y="14" width="12" height="1" fill="#ffd348" style=""></rect><rect x="4" y="17" width="6" height="1" fill="#ffd348" style=""></rect><path d="M17,0H3C1.346,0,0,1.346,0,3v20c0,1.654,1.346,3,3,3h5.884l-0.18-0.47C8.533,25.02,8.6,24.467,8.856,24H3   c-0.552,0-1-0.448-1-1V3c0-0.552,0.448-1,1-1h14c0.552,0,1,0.448,1,1v20c0,0.378-0.219,0.695-0.528,0.865   c0.507,0.106,0.954,0.407,1.232,0.848c0.11,0.175,0.18,0.366,0.229,0.563C19.58,24.725,20,23.914,20,23V3C20,1.346,18.654,0,17,0z" fill="#ffd348" style=""></path><path d="M17.233,24.831l-2.342-0.37C14.448,24.387,14,24.004,14,23.555V20c0-0.553-0.447-1-1-1s-1,0.447-1,1v6.025   c0,0.071,0.044,0.127-0.003,0.146c-0.044-0.013-0.071-0.044-0.089-0.096l-0.448-1.393C11.324,24.275,10.95,24,10.52,24   c-0.297,0-0.571,0.143-0.744,0.383s-0.219,0.55-0.125,0.831l2.371,6.195C12.157,31.765,12.5,32,12.881,32h2.674   c0.41,0,0.771-0.271,0.884-0.666l1.526-5.345c0.072-0.251,0.033-0.521-0.106-0.743C17.719,25.025,17.491,24.874,17.233,24.831z" fill="#ffd348" style=""></path></g><desc>Created with Snap</desc><defs></defs></g><g><g transform="matrix(0.5,0,0,-0.5,0,0)"><path d="M161 0L18 0L18 5Q75 24 98 68Q122 113 127 173Q128 328 133 461Q138 595 138 721Q138 849 137 938Q137 1028 133 1088Q129 1148 120 1183Q112 1218 95 1235Q79 1253 54 1257Q29 1262 -7 1262L-7 1267L284 1347Q281 1318 279 1271Q277 1225 275 1170Q274 1115 273 1055Q272 995 272 938Q356 992 433 992Q508 992 571 959Q634 927 679 865Q725 803 750 714Q776 625 776 512Q776 398 755 301Q734 205 693 134Q652 64 589 24Q527 -15 445 -15Q421 -15 388 -13Q356 -10 318 -8Q281 -5 240 -3Q200 0 161 0ZM272 840L271 624Q270 495 273 356Q276 217 282 87Q324 82 360 79Q396 76 428 76Q472 76 508 104Q545 133 571 188Q597 243 611 324Q626 406 626 512Q626 704 572 800Q519 896 407 896Q378 896 344 886Q311 876 272 853L272 840ZM1543 472Q1543 345 1545 264Q1547 184 1560 137Q1573 91 1602 73Q1631 56 1686 56L1686 51L1415 -29Q1423 -2 1424 33Q1425 69 1425 107Q1398 65 1366 38Q1335 12 1302 -3Q1269 -18 1236 -24Q1204 -29 1177 -29Q1077 -29 1020 82Q964 193 964 411Q964 547 962 634Q961 722 948 772Q935 822 906 841Q878 861 823 861L823 866L1144 986Q1136 973 1130 958Q1125 943 1121 921Q1117 899 1114 869Q1112 839 1111 795Q1110 751 1109 692Q1109 633 1109 554Q1109 447 1111 359Q1114 272 1124 209Q1135 147 1157 112Q1179 78 1218 78Q1254 78 1287 98Q1320 118 1345 159Q1370 201 1385 263Q1400 326 1400 411Q1400 547 1398 634Q1397 722 1384 772Q1371 822 1342 841Q1314 861 1259 861L1259 866L1580 986Q1572 971 1566 954Q1560 937 1556 911Q1552 886 1549 850Q1547 814 1545 761Q1544 709 1543 638Q1543 567 1543 472ZM2397 385L2400 385L2492 191Q2432 88 2342 35Q2253 -18 2153 -18Q2066 -18 1992 27Q1919 73 1865 158Q1811 244 1780 368Q1750 492 1750 649Q1750 809 1784 933Q1819 1058 1880 1143Q1941 1228 2024 1272Q2107 1317 2203 1317Q2262 1317 2314 1294Q2366 1271 2405 1236Q2444 1201 2467 1158Q2490 1115 2490 1076Q2490 1025 2450 992L2321 906L2318 911Q2342 934 2353 963Q2364 992 2364 1022Q2364 1056 2351 1089Q2338 1122 2315 1148Q2293 1175 2261 1191Q2229 1207 2192 1207Q2145 1207 2105 1184Q2065 1162 2033 1122Q2002 1082 1978 1028Q1954 974 1938 911Q1922 848 1914 778Q1906 708 1906 638Q1906 534 1920 436Q1935 338 1964 261Q1994 184 2038 137Q2082 91 2142 91Q2191 91 2232 114Q2273 137 2305 176Q2338 216 2360 269Q2383 323 2397 385ZM3415 1327L3415 1322Q3364 1309 3338 1282Q3312 1255 3304 1214Q3298 1080 3295 948Q3293 816 3293 684Q3293 540 3296 399Q3299 258 3304 117Q3312 76 3338 47Q3364 19 3415 5L3415 0L3034 0L3034 5Q3085 19 3108 47Q3132 76 3140 117Q3148 283 3153 425Q3158 568 3159 699Q3136 702 3097 704Q3058 706 2995 706Q2925 706 2884 703Q2843 701 2821 698L2821 684Q2821 619 2821 545Q2821 472 2820 397Q2820 322 2819 250Q2819 178 2818 117Q2817 68 2813 17Q2810 -34 2789 -76Q2768 -117 2722 -144Q2676 -170 2590 -170L2510 -44L2513 -40Q2535 -45 2553 -49Q2571 -52 2585 -52Q2606 -52 2620 -45Q2634 -37 2644 -18Q2654 1 2659 32Q2665 64 2669 111Q2674 172 2678 244Q2682 316 2684 390Q2687 465 2688 537Q2690 609 2690 671Q2690 808 2684 941Q2679 1074 2669 1223Q2659 1258 2633 1283Q2608 1309 2562 1322L2562 1327L2943 1327L2943 1322Q2892 1309 2866 1282Q2840 1256 2832 1215Q2827 1107 2824 1001Q2822 895 2821 789Q2844 787 2886 785Q2928 783 2996 783Q3055 783 3094 784Q3134 786 3159 788Q3157 894 3153 1000Q3149 1107 3141 1222Q3131 1258 3106 1283Q3081 1309 3034 1322L3034 1327L3415 1327ZM3967 149Q3962 202 3957 254Q3953 306 3948 360Q3926 362 3899 364Q3872 366 3836 370Q3804 373 3778 375Q3753 378 3733 381Q3730 353 3726 319Q3723 285 3719 247Q3715 210 3710 171Q3705 132 3698 94Q3693 63 3687 31Q3682 -1 3673 -31Q3664 -60 3649 -86Q3634 -111 3609 -130Q3584 -148 3546 -159Q3509 -170 3455 -169L3375 -40L3378 -37Q3415 -54 3446 -54Q3487 -54 3511 -14Q3536 26 3549 100Q3563 161 3575 242Q3587 323 3597 409Q3607 495 3615 577Q3623 659 3630 721Q3642 837 3653 952Q3665 1068 3671 1194Q3674 1236 3658 1268Q3643 1300 3607 1316L3592 1322L3591 1327L4086 1327L4085 1322L4069 1316Q4033 1300 4017 1268Q4002 1236 4006 1194Q4012 1068 4024 953Q4036 838 4050 721Q4066 590 4082 452Q4098 314 4125 153Q4138 100 4166 61Q4195 22 4249 5L4250 0L3890 0L3889 5Q3937 22 3954 58Q3972 95 3967 149ZM3741 447L3837 447Q3867 447 3892 447Q3918 448 3939 449L3918 684Q3916 703 3912 736Q3909 769 3905 810Q3901 852 3896 899Q3892 946 3888 993Q3877 1101 3866 1228L3818 1229Q3806 1107 3795 1000Q3790 954 3785 907Q3781 860 3776 818Q3772 776 3768 741Q3765 706 3763 684Q3756 613 3751 556Q3747 499 3741 447ZM4258 1274L4258 1327Q4343 1322 4425 1319Q4508 1317 4592 1317Q4676 1317 4757 1319Q4839 1322 4922 1327L4922 1274Q4922 1222 4919 1114L4913 1114Q4913 1147 4889 1167Q4866 1188 4830 1199Q4794 1210 4750 1214Q4707 1219 4667 1221Q4666 1192 4665 1141Q4664 1091 4663 1028Q4663 966 4662 896Q4661 827 4660 760Q4660 694 4659 636Q4659 579 4659 540Q4659 441 4660 343Q4661 246 4668 149Q4671 95 4695 58Q4720 22 4771 5L4771 0L4410 0L4410 5Q4461 22 4483 61Q4506 100 4509 153Q4514 234 4517 308Q4520 382 4522 452Q4524 522 4524 589Q4525 656 4525 721Q4525 844 4524 965Q4523 1087 4513 1221Q4474 1219 4430 1214Q4387 1210 4350 1199Q4314 1188 4290 1167Q4266 1147 4266 1114L4261 1114Q4259 1168 4258 1208Q4258 1248 4258 1274Z" fill="#9c1f16" style=""></path></g></g></g></svg>